<svg width="138" height="32" viewBox="0 0 138 32" fill="none" xmlns="http://www.w3.org/2000/svg">
<path fill-rule="evenodd" clip-rule="evenodd" d="M138 16C138 24.8 130.8 32 122 32H16C7.2 32 0 24.8 0 16C0 7.2 7.2 0 16 0H122C130.9 0 138 7.2 138 16Z" fill="#27AE60"/>
<mask id="mask0" mask-type="alpha" maskUnits="userSpaceOnUse" x="0" y="0" width="33" height="32">
<path fill-rule="evenodd" clip-rule="evenodd" d="M16.7 32C25.5365 32 32.7 24.8366 32.7 16C32.7 7.16344 25.5365 0 16.7 0C7.86339 0 0.699951 7.16344 0.699951 16C0.699951 24.8366 7.86339 32 16.7 32Z" fill="white"/>
<path d="M32.45 16C32.45 24.6985 25.3984 31.75 16.7 31.75C8.00147 31.75 0.949951 24.6985 0.949951 16C0.949951 7.30151 8.00147 0.25 16.7 0.25C25.3984 0.25 32.45 7.30151 32.45 16Z" stroke="white" stroke-width="0.5"/>
</mask>
<g mask="url(#mask0)">
<path fill-rule="evenodd" clip-rule="evenodd" d="M16.5 29C23.9558 29 30 23.1797 30 16C30 8.8203 23.9558 3 16.5 3C9.04416 3 3 8.8203 3 16C3 23.1797 9.04416 29 16.5 29Z" fill="white"/>
<path d="M29.75 16C29.75 23.0328 23.8267 28.75 16.5 28.75C9.17325 28.75 3.25 23.0328 3.25 16C3.25 8.96718 9.17325 3.25 16.5 3.25C23.8267 3.25 29.75 8.96718 29.75 16Z" stroke="#231F20" stroke-opacity="0.1" stroke-width="0.5"/>
<path fill-rule="evenodd" clip-rule="evenodd" d="M15 21L10 16.1923L11.4 14.8462L15 18.3077L22.6 11L24 12.3462L15 21Z" fill="#27AE60"/>
</g>
<path d="M39.8552 21V11.0469H43.1091C44.1892 11.0469 45.0004 11.2702 45.5427 11.7168C46.0896 12.1634 46.363 12.8242 46.363 13.6992C46.363 14.1641 46.2309 14.5765 45.9666 14.9365C45.7022 15.292 45.3422 15.5677 44.8865 15.7637C45.4242 15.9141 45.8481 16.2012 46.158 16.625C46.4724 17.0443 46.6296 17.5456 46.6296 18.1289C46.6296 19.0221 46.3403 19.724 45.7615 20.2344C45.1827 20.7448 44.3647 21 43.3074 21H39.8552ZM41.1677 16.3447V19.9268H43.3347C43.9454 19.9268 44.4262 19.7695 44.7771 19.4551C45.1326 19.1361 45.3103 18.6986 45.3103 18.1426C45.3103 16.944 44.6586 16.3447 43.3552 16.3447H41.1677ZM41.1677 15.292H43.1501C43.7244 15.292 44.1824 15.1484 44.5242 14.8613C44.8705 14.5742 45.0437 14.1846 45.0437 13.6924C45.0437 13.1455 44.8842 12.749 44.5652 12.5029C44.2462 12.2523 43.7608 12.127 43.1091 12.127H41.1677V15.292ZM57.8953 21H56.6306V17.8418H53.2332V21H51.9617V13.6035H53.2332V16.8096H56.6306V13.6035H57.8953V21ZM64.4988 21C64.4259 20.8542 64.3666 20.5944 64.321 20.2207C63.7332 20.8314 63.0313 21.1367 62.2156 21.1367C61.4864 21.1367 60.8871 20.9316 60.4177 20.5215C59.9529 20.1068 59.7205 19.5827 59.7205 18.9492C59.7205 18.179 60.0121 17.582 60.5955 17.1582C61.1833 16.7298 62.0082 16.5156 63.0701 16.5156H64.3005V15.9346C64.3005 15.4925 64.1684 15.1416 63.9041 14.8818C63.6397 14.6175 63.2501 14.4854 62.7351 14.4854C62.2839 14.4854 61.9057 14.5993 61.6003 14.8271C61.295 15.055 61.1423 15.3307 61.1423 15.6543H59.8708C59.8708 15.2852 60.0007 14.9297 60.2605 14.5879C60.5248 14.2415 60.8803 13.9681 61.3269 13.7676C61.7781 13.5671 62.2725 13.4668 62.8103 13.4668C63.6625 13.4668 64.3302 13.681 64.8132 14.1094C65.2963 14.5332 65.547 15.1188 65.5652 15.8662V19.2705C65.5652 19.9495 65.6518 20.4896 65.825 20.8906V21H64.4988ZM62.4001 20.0361C62.7966 20.0361 63.1726 19.9336 63.5281 19.7285C63.8835 19.5234 64.141 19.2568 64.3005 18.9287V17.4111H63.3093C61.7598 17.4111 60.9851 17.8646 60.9851 18.7715C60.9851 19.168 61.1173 19.4779 61.3816 19.7012C61.6459 19.9245 61.9854 20.0361 62.4001 20.0361ZM73.6111 13.6035V21H72.3396V14.6494H69.824L69.6736 17.418C69.5916 18.6895 69.3774 19.5986 69.031 20.1455C68.6892 20.6924 68.1446 20.9772 67.3972 21H66.8914V19.8857L67.2537 19.8584C67.6638 19.8128 67.9578 19.5758 68.1355 19.1475C68.3132 18.7191 68.4272 17.9261 68.4773 16.7686L68.614 13.6035H73.6111ZM80.4265 13.6035H81.6912V21H80.4265V15.6064L77.0154 21H75.7507V13.6035H77.0154V19.0039L80.4265 13.6035ZM89.3064 21H88.0349V18.3203C87.4789 18.4661 86.9093 18.5391 86.3259 18.5391C85.4008 18.5391 84.6944 18.3021 84.2068 17.8281C83.7237 17.3542 83.4776 16.6797 83.4685 15.8047V13.5967H84.7332V15.8457C84.7559 16.9486 85.2869 17.5 86.3259 17.5C86.9093 17.5 87.4789 17.4271 88.0349 17.2812V13.6035H89.3064V21ZM96.1218 13.6035H97.3865V21H96.1218V15.6064L92.7107 21H91.446V13.6035H92.7107V19.0039L96.1218 13.6035ZM104.202 13.6035H105.467V21H104.202V15.6064L100.791 21H99.5261V13.6035H100.791V19.0039L104.202 13.6035Z" fill="white"/>
</svg>
