<svg width="16px" height="17px" viewBox="0 0 16 17" version="1.1">
  <g stroke="none" stroke-width="1" fill="none" fill-rule="evenodd">
    <g transform="translate(-1163.000000, -28.000000)">
      <g transform="translate(0.000000, -1.000000)">
        <g transform="translate(1010.000000, 29.000000)">
          <g transform="translate(153.000000, 0.000000)">
            <path d="M16,8.5 C16,13.1937 12.4176,17 8,17 C3.5824,17 0,13.1937 0,8.5 C0,3.8063 3.5824,0 8,0 C12.4176,0 16,3.8063 16,8.5 Z" id="Path" fill="#FFFFFF" fill-rule="nonzero" class="svg-fill bg"></path>
            <path class="tel-fill center" d="M7.95328,13.26 C7.93632,13.26 7.91904,13.25932 7.90176,13.25762 C7.62368,13.23416 7.392,13.02166 7.32928,12.73266 L6.70816,9.87224 L4.01568,9.21264 C3.74368,9.146 3.544,8.89984 3.5216,8.60438 C3.4992,8.30892 3.65984,8.03182 3.91808,7.91996 L10.31808,5.15032 C10.5568,5.0473 10.83008,5.10578 11.01184,5.29924 C11.19392,5.49236 11.24928,5.78306 11.152,6.0367 L8.54528,12.8367 C8.44704,13.09408 8.21184,13.26 7.95328,13.26 Z" id="Path" fill="#030303"></path>
          </g>
        </g>
      </g>
    </g>
  </g>
</svg>
