<svg width="16px" height="16px" viewBox="0 0 16 16" version="1.1" >
  <g stroke="none" stroke-width="1" fill="none" fill-rule="evenodd">
    <g transform="translate(-1137.000000, -29.000000)" fill-rule="nonzero">
      <g transform="translate(0.000000, -1.000000)">
        <g transform="translate(1010.000000, 29.000000)">
          <g transform="translate(127.000000, 1.000000)">
            <path class="viber-fill-bg" d="M15.0195435,3.84661724 L15.014979,3.82814979 C14.6457596,2.31843524 12.9812292,0.698428936 11.4526202,0.361397859 L11.4353764,0.357806965 C8.96292497,-0.119268988 6.45598597,-0.119268988 3.98404167,0.357806965 L3.96629073,0.361397859 C2.43818893,0.698428936 0.773658523,2.31843524 0.403931933,3.82814979 L0.399874577,3.84661724 C-0.0565780027,5.95498517 -0.0565780027,8.09310622 0.399874577,10.2014741 L0.403931933,10.2199416 C0.75788555,11.6652252 2.29846372,13.2107974 3.77001612,13.6358567 L3.77001612,15.3211147 C3.77001612,15.9310537 4.50490478,16.2306369 4.92281247,15.7904959 L6.61092626,14.0156194 C6.97705195,14.036344 7.3433805,14.0478862 7.70970906,14.0478862 C8.95430309,14.0478862 10.1994043,13.9288737 11.4353764,13.6903357 L11.4526202,13.6867448 C12.9812292,13.3497137 14.6457596,11.7297074 15.014979,10.2199929 L15.0195435,10.2015254 C15.4759961,8.09310622 15.4759961,5.95498517 15.0195435,3.84661724 Z" id="Shape" fill="#FFFFFF"></path>
            <path class="viber-fill-center" d="M10.1225603,11.6170511 C9.94742334,11.5630949 9.78051389,11.5268321 9.62551422,11.4615474 C8.01936319,10.7852263 6.54117032,9.91270073 5.37027264,8.57518248 C4.70441844,7.81459854 4.18326512,6.95591241 3.74271854,6.04718248 C3.53380843,5.61623358 3.3577509,5.16840876 3.17829879,4.72350365 C3.01466885,4.31778102 3.25568356,3.89862774 3.50947107,3.59293431 C3.74760902,3.3060438 4.05404119,3.08648175 4.38590389,2.92467153 C4.6449271,2.79836496 4.90044067,2.87118248 5.08961621,3.0940146 C5.49857601,3.57576642 5.87422295,4.08216058 6.17841125,4.64058394 C6.36545799,4.98405839 6.31413665,5.40391241 5.97513959,5.63766423 C5.89274926,5.69448175 5.8176659,5.76116788 5.74091402,5.82534307 C5.67359791,5.88157664 5.61025172,5.93839416 5.56410853,6.01454015 C5.47976201,6.15386861 5.47573455,6.31818978 5.53004773,6.46966423 C5.94809807,7.63567883 6.65273096,8.54236496 7.80907225,9.03071533 C7.99410526,9.10884672 8.17994377,9.19982482 8.39311147,9.17459854 C8.75011703,9.13226277 8.86570513,8.73483212 9.11586793,8.52718248 C9.36039229,8.32426277 9.67286564,8.32157664 9.93626152,8.49074453 C10.1997149,8.6599708 10.4551134,8.84163504 10.7089585,9.02522628 C10.9581432,9.20543066 11.2062347,9.38172263 11.4360876,9.58715328 C11.6570801,9.78470073 11.7331991,10.043854 11.6087506,10.3119416 C11.3809114,10.8029197 11.0493939,11.2113869 10.5711618,11.4721168 C10.4361268,11.545635 10.2748558,11.5694599 10.1225603,11.6170511 C9.94742334,11.5630365 10.2748558,11.5694599 10.1225603,11.6170511 Z" id="Path" fill="#030303"></path>
            <path class="viber-fill-center" d="M7.64883687,2.36327007 C9.74973259,2.4230073 11.475269,3.83807299 11.8450474,5.94610219 C11.9080484,6.30528467 11.9304871,6.67252555 11.9585067,7.03708029 C11.9703014,7.19042336 11.8847466,7.33611679 11.7216921,7.33810219 C11.5532867,7.34014599 11.4775129,7.19713869 11.4665812,7.04385401 C11.444948,6.74043796 11.4299314,6.43567883 11.3887362,6.13477372 C11.1712534,4.54639416 9.92331612,3.23229197 8.36555214,2.95030657 C8.13115397,2.90785401 7.89123243,2.89670073 7.6537849,2.87141606 C7.50367571,2.85541606 7.30707813,2.84618978 7.27382282,2.65681752 C7.24591827,2.4980438 7.37796143,2.37162044 7.52691991,2.36350365 C7.56742465,2.36122628 7.60815953,2.36309489 7.64883687,2.36327007 C9.74973259,2.4230073 7.60815953,2.36309489 7.64883687,2.36327007 Z" id="Path" fill="#030303"></path>
            <path class="svg-fill center" d="M10.841577,6.56391241 C10.8381249,6.59054015 10.8362838,6.65313869 10.8209219,6.71211679 C10.7651703,6.92618978 10.44539,6.9529927 10.371745,6.73693431 C10.3499392,6.67281752 10.3466597,6.59988321 10.3465446,6.53086131 C10.3457967,6.07924088 10.2490801,5.62808759 10.024693,5.23515328 C9.79403465,4.83129927 9.44163191,4.49179562 9.02829944,4.28636496 C8.77836679,4.16216058 8.50806669,4.0849635 8.23414188,4.03894891 C8.11441125,4.01886131 7.99341484,4.00665693 7.87310886,3.98966423 C7.72731481,3.96910949 7.64946976,3.87480292 7.65637398,3.7289927 C7.66281791,3.59235036 7.76120301,3.49407299 7.90791762,3.50248175 C8.39006211,3.53027737 8.85575155,3.6360292 9.28438836,3.86639416 C10.1560458,4.33489051 10.6539549,5.07439416 10.7992887,6.06183942 C10.8058477,6.10656934 10.8164341,6.15089051 10.8197712,6.19579562 C10.8279987,6.30668613 10.8331769,6.41769343 10.841577,6.56391241 C10.8381249,6.59054015 10.8331769,6.41769343 10.841577,6.56391241 Z" id="Path" fill="#030303"></path>
            <path class="viber-fill-center" d="M9.53483884,6.51229197 C9.35906898,6.51550365 9.26499902,6.41675912 9.24687545,6.25319708 C9.23427525,6.13915328 9.22432167,6.02359124 9.1975103,5.91264234 C9.14469304,5.69413139 9.03025564,5.49162044 8.84913501,5.35772263 C8.76363779,5.29448175 8.66674861,5.24840876 8.56525662,5.21868613 C8.43632037,5.18090511 8.30243609,5.19129927 8.17378751,5.15929927 C8.03409219,5.12455474 7.95682249,5.00975182 7.97880092,4.87672993 C7.99876561,4.75567883 8.11481399,4.66119708 8.24513109,4.67077372 C9.0596561,4.73045255 9.64179667,5.15783942 9.72487741,6.1310365 C9.730746,6.19970803 9.73765021,6.27229197 9.72263354,6.3379854 C9.69691533,6.45045255 9.61487022,6.50680292 9.53483884,6.51229197 C9.35906898,6.51550365 9.61487022,6.50680292 9.53483884,6.51229197 Z" id="Path" fill="#030303"></path>
          </g>
        </g>
      </g>
    </g>
  </g>
</svg>
